<svg xmlns="http://www.w3.org/2000/svg" viewBox="0 0 255.1 209.8"><path d="M112.1 153.5c0-7 5.5-12.2 13.2-12.2 5.3 0 9 1.5 12.3 3.3V130c-3.5-1.7-8.2-2.7-12.7-2.7-.8 0-1.6 0-2.4.1v-12H99.6V78.8h26.3c11 0 18.5-5.8 18.5-14.6 0-8.1-6.2-12.6-9.6-13.3 1.9-.9 6-4.1 6-9.6 0-8.9-7.3-12.9-16.1-12.9H99.2v50H84.1v50.4H115c-11.2 3.4-18.8 12.6-18.8 24.8 0 15.6 12.4 26.2 28.9 26.2 4.7 0 9.6-.8 13.3-2.7v-14.8c-3.7 2.7-8.1 3.6-12.5 3.6-7.9-.1-13.8-5.2-13.8-12.4zm2.6-113.1h7.8c2.1 0 3.7 1.4 3.7 3.5 0 1.9-1.6 3.2-3.7 3.2h-7.8v-6.7zm0 17.5h8.1c2.7 0 4.6 1.8 4.6 4.2 0 2.5-1.9 4.1-4.6 4.1h-8.1v-8.3zM216 147.5c-9.4-2.8-11.5-3.6-11.5-5 0-1.2 1.1-1.9 4.5-1.9 6 0 14.5 2.2 19.4 5.1v-14.4c-4.4-2.1-10.2-4-18.2-4-12.7 0-21.7 5-21.7 15.6 0 9.2 7.3 13.4 16.6 16.1 7.8 2.3 10.5 3.3 10.5 4.8 0 1.9-2.6 2.4-5.8 2.4-6.6 0-16.6-3.1-21.2-7.1V173l-17-21.4 17.9-23.4h-18.2L157.1 147v-18.8H156c10.9-3.6 17.9-13.5 17.9-24.8 0-14.3-11.1-26.2-26.9-26.2-15.8 0-27 12-27 26.2 0 12.4 8.6 23.2 21.4 25.7v49.5h15.5V157l17 21.7h19l-2.6-3.3c6 3.3 12.4 4.3 19.1 4.3 13.2 0 22.2-6.4 22.2-16.6-.1-7.7-5.3-12.5-15.6-15.6zm-80.1-44c0-7 4.7-12.1 11.2-12.1s11.2 5.1 11.2 12.1-4.7 12.1-11.2 12.1-11.2-5.1-11.2-12.1zM28.3 93.7v85H74v-85H28.3zm9.8 11.8h25.2v6.4H38.1v-6.4zm25.1 10.9v6.4H45v-6.4h18.2zM36 119.6c0-2.1 1.6-3.7 3.7-3.7s3.7 1.6 3.7 3.7c0 2-1.6 3.6-3.7 3.6s-3.7-1.6-3.7-3.6zm27.2 47.1H38.1v-19.1h5.7v12.7h3.4v-10.1h5.5v10.1h4.9v-13h5.7v19.4zm.2-28.3L45 146.1v-6.8l10.5-4-10.5-4v-6.6l18.4 7.7v6z"/></svg>
